<?xml version="1.0" standalone="no"?><!DOCTYPE svg PUBLIC "-//W3C//DTD SVG 1.1//EN" "http://www.w3.org/Graphics/SVG/1.1/DTD/svg11.dtd"><svg t="1569287514181" class="icon" viewBox="0 0 1024 1024" version="1.1" xmlns="http://www.w3.org/2000/svg" p-id="3520" xmlns:xlink="http://www.w3.org/1999/xlink" width="32" height="32"><defs><style type="text/css"></style></defs><path d="M840.2 86.4H183.8c-66.2 0-119.8 52.7-119.8 139v387.9c0 86.2 53.7 136.1 119.8 136.1h366.9l-31 186.1 217.8-186.1h102.7c66.3 0 120-49.9 120-136.1V225.4c-0.1-86.2-53.8-139-120-139zM255.9 505.3c-46.3 0-83.7-39.1-83.7-87.4 0-48.4 37.4-87.4 83.7-87.4 46.3 0 83.7 39.1 83.7 87.4-0.1 48.4-37.4 87.4-83.7 87.4z m256-4.8c-45.6 0-82.4-37-82.4-82.6 0-45.8 36.8-82.7 82.4-82.7 45.5 0 82.4 36.9 82.4 82.7 0.1 45.7-36.8 82.6-82.4 82.6z m257.4 0c-45.4 0-82.4-37-82.4-82.6 0-45.8 37-82.7 82.4-82.7 45.5 0 82.4 36.9 82.4 82.7 0 45.7-36.8 82.6-82.4 82.6z" p-id="3521"></path></svg>