<svg xmlns="http://www.w3.org/2000/svg" width="22" height="22" viewBox="0 0 22 22">
  <metadata><?xpacket begin="﻿" id="W5M0MpCehiHzreSzNTczkc9d"?>
<x:xmpmeta xmlns:x="adobe:ns:meta/" x:xmptk="Adobe XMP Core 5.6-c138 79.159824, 2016/09/14-01:09:01        ">
   <rdf:RDF xmlns:rdf="http://www.w3.org/1999/02/22-rdf-syntax-ns#">
      <rdf:Description rdf:about=""/>
   </rdf:RDF>
</x:xmpmeta>
                                                                                                    
                                                                                                    
                                                                                                    
                                                                                                    
                                                                                                    
                                                                                                    
                                                                                                    
                                                                                                    
                                                                                                    
                                                                                                    
                                                                                                    
                                                                                                    
                                                                                                    
                                                                                                    
                                                                                                    
                                                                                                    
                                                                                                    
                                                                                                    
                                                                                                    
                                                                                                    
                           
<?xpacket end="w"?></metadata>
<defs>
    <style>
      .cls-1 {
        fill: #fff9f9;
        fill-rule: evenodd;
      }
    </style>
  </defs>
  <path id="店铺管理" class="cls-1" d="M39.684,402H24.316a1.694,1.694,0,0,1-1.692-1.693V389.729a0.846,0.846,0,0,1,1.692,0v10.578H39.684V389.729a0.846,0.846,0,0,1,1.693,0v10.578A1.694,1.694,0,0,1,39.684,402h0Zm0,0M25.879,391.352a4.821,4.821,0,0,1-2.3-.535l-0.036-.02A4.869,4.869,0,0,1,21,386.517c0-.339.137-0.718,1.49-3.673,0.322-.7.627-1.37,0.823-1.824A1.689,1.689,0,0,1,24.866,380H39.182a1.688,1.688,0,0,1,1.558,1.03c0.192,0.454.491,1.118,0.805,1.818,1.323,2.942,1.457,3.32,1.455,3.657a4.875,4.875,0,0,1-7.949,3.745,4.8,4.8,0,0,1-6.1,0,4.868,4.868,0,0,1-3.072,1.1h0ZM24.4,389.335a3.277,3.277,0,0,0,3.9-.809,0.849,0.849,0,0,1,.647-0.3h0a0.849,0.849,0,0,1,.647.3,3.123,3.123,0,0,0,4.806,0,0.874,0.874,0,0,1,1.3,0,3.164,3.164,0,0,0,5.608-1.945c-0.125-.411-0.831-1.982-1.305-3.036-0.32-.712-0.623-1.388-0.819-1.85H24.866c-0.2.461-.509,1.14-0.837,1.856-0.484,1.058-1.205,2.633-1.335,3.048a3.179,3.179,0,0,0,1.685,2.726l0.023,0.013h0ZM41.308,386.5h0Zm-2.125-4.809h0Zm0,0-6.125,17.346H30.942v-4.231a0.846,0.846,0,0,1,.846-0.846h0.423a0.846,0.846,0,0,1,.846.846v4.231Zm0,0" transform="translate(-21 -380)"/>
</svg>
