<svg xmlns="http://www.w3.org/2000/svg" width="24" height="22" viewBox="0 0 24 22">
  <metadata><?xpacket begin="﻿" id="W5M0MpCehiHzreSzNTczkc9d"?>
<x:xmpmeta xmlns:x="adobe:ns:meta/" x:xmptk="Adobe XMP Core 5.6-c138 79.159824, 2016/09/14-01:09:01        ">
   <rdf:RDF xmlns:rdf="http://www.w3.org/1999/02/22-rdf-syntax-ns#">
      <rdf:Description rdf:about=""/>
   </rdf:RDF>
</x:xmpmeta>
                                                                                                    
                                                                                                    
                                                                                                    
                                                                                                    
                                                                                                    
                                                                                                    
                                                                                                    
                                                                                                    
                                                                                                    
                                                                                                    
                                                                                                    
                                                                                                    
                                                                                                    
                                                                                                    
                                                                                                    
                                                                                                    
                                                                                                    
                                                                                                    
                                                                                                    
                                                                                                    
                           
<?xpacket end="w"?></metadata>
<defs>
    <style>
      .cls-1 {
        fill: #fff;
        fill-rule: evenodd;
      }
    </style>
  </defs>
  <path id="活动管理" class="cls-1" d="M42.756,472.471a0.412,0.412,0,0,1-.411-0.418v13.7a0.415,0.415,0,0,1,.411-0.418H21.244a0.413,0.413,0,0,1,.411.418v-13.7a0.414,0.414,0,0,1-.411.418H42.756ZM20,472.053v13.7A1.245,1.245,0,0,0,21.244,487H42.756A1.243,1.243,0,0,0,44,485.757v-13.7a1.245,1.245,0,0,0-1.244-1.242H21.244A1.243,1.243,0,0,0,20,472.053h0Zm21.516-2.487a0.831,0.831,0,0,0,0-1.661H22.484a0.831,0.831,0,0,0,0,1.661H41.516ZM26.622,465a0.83,0.83,0,0,0,0,1.66H37.378a0.83,0.83,0,0,0,0-1.66H26.622Zm9.518,17.018a0.83,0.83,0,0,0,0-1.66H27.861a0.83,0.83,0,0,0,0,1.66h8.279Zm-8.279-4.566a0.831,0.831,0,0,0,0,1.661h8.279a0.831,0.831,0,0,0,0-1.661H27.861Zm3.312,6.228a0.828,0.828,0,1,0,1.655,0V478.7a0.828,0.828,0,1,0-1.655,0v4.984Zm1.706-5.318,2.924-2.934a0.829,0.829,0,0,0-1.17-1.174l-2.924,2.934a0.409,0.409,0,0,1,.584,0,0.829,0.829,0,1,0-1.17,1.174,1.243,1.243,0,0,0,1.757,0h0Zm-1.757,0a0.829,0.829,0,0,0,1.17-1.174l-2.925-2.934a0.829,0.829,0,0,0-1.17,1.174Zm0,0" transform="translate(-20 -465)"/>
</svg>
