<svg xmlns="http://www.w3.org/2000/svg" width="20" height="22" viewBox="0 0 20 22">
  <metadata><?xpacket begin="﻿" id="W5M0MpCehiHzreSzNTczkc9d"?>
<x:xmpmeta xmlns:x="adobe:ns:meta/" x:xmptk="Adobe XMP Core 5.6-c138 79.159824, 2016/09/14-01:09:01        ">
   <rdf:RDF xmlns:rdf="http://www.w3.org/1999/02/22-rdf-syntax-ns#">
      <rdf:Description rdf:about=""/>
   </rdf:RDF>
</x:xmpmeta>
                                                                                                    
                                                                                                    
                                                                                                    
                                                                                                    
                                                                                                    
                                                                                                    
                                                                                                    
                                                                                                    
                                                                                                    
                                                                                                    
                                                                                                    
                                                                                                    
                                                                                                    
                                                                                                    
                                                                                                    
                                                                                                    
                                                                                                    
                                                                                                    
                                                                                                    
                                                                                                    
                           
<?xpacket end="w"?></metadata>
<defs>
    <style>
      .cls-1 {
        fill: #fff;
        fill-rule: evenodd;
      }
    </style>
  </defs>
  <path id="首页" class="cls-1" d="M40.333,306.35V305.8L32,299.2l-8.333,6.6v0.551H22v-1.039a1.367,1.367,0,0,1,.5-0.978l9.043-7.12a0.594,0.594,0,0,1,.913,0l9.043,7.12a1.367,1.367,0,0,1,.5.978v1.039H40.333Zm-16.667,0v7.7A3.317,3.317,0,0,0,27,317.35H37a3.317,3.317,0,0,0,3.333-3.3v-7.7H42v8.25a4.422,4.422,0,0,1-4.444,4.4H26.444A4.422,4.422,0,0,1,22,314.6v-8.25h1.667Z" transform="translate(-22 -297)"/>
</svg>
